<?xml version="1.0" encoding="utf-8" standalone="no"?>
<!DOCTYPE svg PUBLIC "-//W3C//DTD SVG 1.1//EN"
  "http://www.w3.org/Graphics/SVG/1.1/DTD/svg11.dtd">
<!-- Created with matplotlib (http://matplotlib.org/) -->
<svg height="720pt" version="1.1" viewBox="0 0 720 720" width="720pt" xmlns="http://www.w3.org/2000/svg" xmlns:xlink="http://www.w3.org/1999/xlink">
 <defs>
  <style type="text/css">
*{stroke-linecap:butt;stroke-linejoin:round;}
  </style>
 </defs>
 <g id="figure_1">
  <g id="patch_1">
   <path d="M 0 720 
L 720 720 
L 720 0 
L 0 0 
z
" style="fill:#ffffff;"/>
  </g>
  <g id="axes_1">
   <g id="patch_2">
    <path d="M 90 246.282353 
L 254.117647 246.282353 
L 254.117647 86.4 
L 90 86.4 
z
" style="fill:#ffffff;"/>
   </g>
   <g id="matplotlib.axis_1">
    <g id="xtick_1">
     <g id="line2d_1">
      <defs>
       <path d="M 0 0 
L 0 3.5 
" id="mbfd961fbd6" style="stroke:#000000;stroke-width:0.8;"/>
      </defs>
      <g>
       <use style="stroke:#000000;stroke-width:0.8;" x="130.614973" xlink:href="#mbfd961fbd6" y="246.282353"/>
      </g>
     </g>
    </g>
    <g id="xtick_2">
     <g id="line2d_2">
      <g>
       <use style="stroke:#000000;stroke-width:0.8;" x="172.058824" xlink:href="#mbfd961fbd6" y="246.282353"/>
      </g>
     </g>
    </g>
    <g id="xtick_3">
     <g id="line2d_3">
      <g>
       <use style="stroke:#000000;stroke-width:0.8;" x="213.502674" xlink:href="#mbfd961fbd6" y="246.282353"/>
      </g>
     </g>
    </g>
   </g>
   <g id="matplotlib.axis_2">
    <g id="ytick_1">
     <g id="line2d_4">
      <defs>
       <path d="M 0 0 
L -3.5 0 
" id="m620cf92398" style="stroke:#000000;stroke-width:0.8;"/>
      </defs>
      <g>
       <use style="stroke:#000000;stroke-width:0.8;" x="90" xlink:href="#m620cf92398" y="228.719724"/>
      </g>
     </g>
     <g id="text_1">
      <!-- 0.15 -->
      <defs>
       <path d="M 31.78125 66.40625 
Q 24.171875 66.40625 20.328125 58.90625 
Q 16.5 51.421875 16.5 36.375 
Q 16.5 21.390625 20.328125 13.890625 
Q 24.171875 6.390625 31.78125 6.390625 
Q 39.453125 6.390625 43.28125 13.890625 
Q 47.125 21.390625 47.125 36.375 
Q 47.125 51.421875 43.28125 58.90625 
Q 39.453125 66.40625 31.78125 66.40625 
z
M 31.78125 74.21875 
Q 44.046875 74.21875 50.515625 64.515625 
Q 56.984375 54.828125 56.984375 36.375 
Q 56.984375 17.96875 50.515625 8.265625 
Q 44.046875 -1.421875 31.78125 -1.421875 
Q 19.53125 -1.421875 13.0625 8.265625 
Q 6.59375 17.96875 6.59375 36.375 
Q 6.59375 54.828125 13.0625 64.515625 
Q 19.53125 74.21875 31.78125 74.21875 
z
" id="DejaVuSans-30"/>
       <path d="M 10.6875 12.40625 
L 21 12.40625 
L 21 0 
L 10.6875 0 
z
" id="DejaVuSans-2e"/>
       <path d="M 12.40625 8.296875 
L 28.515625 8.296875 
L 28.515625 63.921875 
L 10.984375 60.40625 
L 10.984375 69.390625 
L 28.421875 72.90625 
L 38.28125 72.90625 
L 38.28125 8.296875 
L 54.390625 8.296875 
L 54.390625 0 
L 12.40625 0 
z
" id="DejaVuSans-31"/>
       <path d="M 10.796875 72.90625 
L 49.515625 72.90625 
L 49.515625 64.59375 
L 19.828125 64.59375 
L 19.828125 46.734375 
Q 21.96875 47.46875 24.109375 47.828125 
Q 26.265625 48.1875 28.421875 48.1875 
Q 40.625 48.1875 47.75 41.5 
Q 54.890625 34.8125 54.890625 23.390625 
Q 54.890625 11.625 47.5625 5.09375 
Q 40.234375 -1.421875 26.90625 -1.421875 
Q 22.3125 -1.421875 17.546875 -0.640625 
Q 12.796875 0.140625 7.71875 1.703125 
L 7.71875 11.625 
Q 12.109375 9.234375 16.796875 8.0625 
Q 21.484375 6.890625 26.703125 6.890625 
Q 35.15625 6.890625 40.078125 11.328125 
Q 45.015625 15.765625 45.015625 23.390625 
Q 45.015625 31 40.078125 35.4375 
Q 35.15625 39.890625 26.703125 39.890625 
Q 22.75 39.890625 18.8125 39.015625 
Q 14.890625 38.140625 10.796875 36.28125 
z
" id="DejaVuSans-35"/>
      </defs>
      <g transform="translate(60.734375 232.518943)scale(0.1 -0.1)">
       <use xlink:href="#DejaVuSans-30"/>
       <use x="63.623047" xlink:href="#DejaVuSans-2e"/>
       <use x="95.410156" xlink:href="#DejaVuSans-31"/>
       <use x="159.033203" xlink:href="#DejaVuSans-35"/>
      </g>
     </g>
    </g>
    <g id="ytick_2">
     <g id="line2d_5">
      <g>
       <use style="stroke:#000000;stroke-width:0.8;" x="90" xlink:href="#m620cf92398" y="204.50965"/>
      </g>
     </g>
     <g id="text_2">
      <!-- 0.16 -->
      <defs>
       <path d="M 33.015625 40.375 
Q 26.375 40.375 22.484375 35.828125 
Q 18.609375 31.296875 18.609375 23.390625 
Q 18.609375 15.53125 22.484375 10.953125 
Q 26.375 6.390625 33.015625 6.390625 
Q 39.65625 6.390625 43.53125 10.953125 
Q 47.40625 15.53125 47.40625 23.390625 
Q 47.40625 31.296875 43.53125 35.828125 
Q 39.65625 40.375 33.015625 40.375 
z
M 52.59375 71.296875 
L 52.59375 62.3125 
Q 48.875 64.0625 45.09375 64.984375 
Q 41.3125 65.921875 37.59375 65.921875 
Q 27.828125 65.921875 22.671875 59.328125 
Q 17.53125 52.734375 16.796875 39.40625 
Q 19.671875 43.65625 24.015625 45.921875 
Q 28.375 48.1875 33.59375 48.1875 
Q 44.578125 48.1875 50.953125 41.515625 
Q 57.328125 34.859375 57.328125 23.390625 
Q 57.328125 12.15625 50.6875 5.359375 
Q 44.046875 -1.421875 33.015625 -1.421875 
Q 20.359375 -1.421875 13.671875 8.265625 
Q 6.984375 17.96875 6.984375 36.375 
Q 6.984375 53.65625 15.1875 63.9375 
Q 23.390625 74.21875 37.203125 74.21875 
Q 40.921875 74.21875 44.703125 73.484375 
Q 48.484375 72.75 52.59375 71.296875 
z
" id="DejaVuSans-36"/>
      </defs>
      <g transform="translate(60.734375 208.308869)scale(0.1 -0.1)">
       <use xlink:href="#DejaVuSans-30"/>
       <use x="63.623047" xlink:href="#DejaVuSans-2e"/>
       <use x="95.410156" xlink:href="#DejaVuSans-31"/>
       <use x="159.033203" xlink:href="#DejaVuSans-36"/>
      </g>
     </g>
    </g>
    <g id="ytick_3">
     <g id="line2d_6">
      <g>
       <use style="stroke:#000000;stroke-width:0.8;" x="90" xlink:href="#m620cf92398" y="180.299575"/>
      </g>
     </g>
     <g id="text_3">
      <!-- 0.17 -->
      <defs>
       <path d="M 8.203125 72.90625 
L 55.078125 72.90625 
L 55.078125 68.703125 
L 28.609375 0 
L 18.3125 0 
L 43.21875 64.59375 
L 8.203125 64.59375 
z
" id="DejaVuSans-37"/>
      </defs>
      <g transform="translate(60.734375 184.098794)scale(0.1 -0.1)">
       <use xlink:href="#DejaVuSans-30"/>
       <use x="63.623047" xlink:href="#DejaVuSans-2e"/>
       <use x="95.410156" xlink:href="#DejaVuSans-31"/>
       <use x="159.033203" xlink:href="#DejaVuSans-37"/>
      </g>
     </g>
    </g>
    <g id="ytick_4">
     <g id="line2d_7">
      <g>
       <use style="stroke:#000000;stroke-width:0.8;" x="90" xlink:href="#m620cf92398" y="156.089501"/>
      </g>
     </g>
     <g id="text_4">
      <!-- 0.18 -->
      <defs>
       <path d="M 31.78125 34.625 
Q 24.75 34.625 20.71875 30.859375 
Q 16.703125 27.09375 16.703125 20.515625 
Q 16.703125 13.921875 20.71875 10.15625 
Q 24.75 6.390625 31.78125 6.390625 
Q 38.8125 6.390625 42.859375 10.171875 
Q 46.921875 13.96875 46.921875 20.515625 
Q 46.921875 27.09375 42.890625 30.859375 
Q 38.875 34.625 31.78125 34.625 
z
M 21.921875 38.8125 
Q 15.578125 40.375 12.03125 44.71875 
Q 8.5 49.078125 8.5 55.328125 
Q 8.5 64.0625 14.71875 69.140625 
Q 20.953125 74.21875 31.78125 74.21875 
Q 42.671875 74.21875 48.875 69.140625 
Q 55.078125 64.0625 55.078125 55.328125 
Q 55.078125 49.078125 51.53125 44.71875 
Q 48 40.375 41.703125 38.8125 
Q 48.828125 37.15625 52.796875 32.3125 
Q 56.78125 27.484375 56.78125 20.515625 
Q 56.78125 9.90625 50.3125 4.234375 
Q 43.84375 -1.421875 31.78125 -1.421875 
Q 19.734375 -1.421875 13.25 4.234375 
Q 6.78125 9.90625 6.78125 20.515625 
Q 6.78125 27.484375 10.78125 32.3125 
Q 14.796875 37.15625 21.921875 38.8125 
z
M 18.3125 54.390625 
Q 18.3125 48.734375 21.84375 45.5625 
Q 25.390625 42.390625 31.78125 42.390625 
Q 38.140625 42.390625 41.71875 45.5625 
Q 45.3125 48.734375 45.3125 54.390625 
Q 45.3125 60.0625 41.71875 63.234375 
Q 38.140625 66.40625 31.78125 66.40625 
Q 25.390625 66.40625 21.84375 63.234375 
Q 18.3125 60.0625 18.3125 54.390625 
z
" id="DejaVuSans-38"/>
      </defs>
      <g transform="translate(60.734375 159.888719)scale(0.1 -0.1)">
       <use xlink:href="#DejaVuSans-30"/>
       <use x="63.623047" xlink:href="#DejaVuSans-2e"/>
       <use x="95.410156" xlink:href="#DejaVuSans-31"/>
       <use x="159.033203" xlink:href="#DejaVuSans-38"/>
      </g>
     </g>
    </g>
    <g id="ytick_5">
     <g id="line2d_8">
      <g>
       <use style="stroke:#000000;stroke-width:0.8;" x="90" xlink:href="#m620cf92398" y="131.879426"/>
      </g>
     </g>
     <g id="text_5">
      <!-- 0.19 -->
      <defs>
       <path d="M 10.984375 1.515625 
L 10.984375 10.5 
Q 14.703125 8.734375 18.5 7.8125 
Q 22.3125 6.890625 25.984375 6.890625 
Q 35.75 6.890625 40.890625 13.453125 
Q 46.046875 20.015625 46.78125 33.40625 
Q 43.953125 29.203125 39.59375 26.953125 
Q 35.25 24.703125 29.984375 24.703125 
Q 19.046875 24.703125 12.671875 31.3125 
Q 6.296875 37.9375 6.296875 49.421875 
Q 6.296875 60.640625 12.9375 67.421875 
Q 19.578125 74.21875 30.609375 74.21875 
Q 43.265625 74.21875 49.921875 64.515625 
Q 56.59375 54.828125 56.59375 36.375 
Q 56.59375 19.140625 48.40625 8.859375 
Q 40.234375 -1.421875 26.421875 -1.421875 
Q 22.703125 -1.421875 18.890625 -0.6875 
Q 15.09375 0.046875 10.984375 1.515625 
z
M 30.609375 32.421875 
Q 37.25 32.421875 41.125 36.953125 
Q 45.015625 41.5 45.015625 49.421875 
Q 45.015625 57.28125 41.125 61.84375 
Q 37.25 66.40625 30.609375 66.40625 
Q 23.96875 66.40625 20.09375 61.84375 
Q 16.21875 57.28125 16.21875 49.421875 
Q 16.21875 41.5 20.09375 36.953125 
Q 23.96875 32.421875 30.609375 32.421875 
z
" id="DejaVuSans-39"/>
      </defs>
      <g transform="translate(60.734375 135.678645)scale(0.1 -0.1)">
       <use xlink:href="#DejaVuSans-30"/>
       <use x="63.623047" xlink:href="#DejaVuSans-2e"/>
       <use x="95.410156" xlink:href="#DejaVuSans-31"/>
       <use x="159.033203" xlink:href="#DejaVuSans-39"/>
      </g>
     </g>
    </g>
    <g id="ytick_6">
     <g id="line2d_9">
      <g>
       <use style="stroke:#000000;stroke-width:0.8;" x="90" xlink:href="#m620cf92398" y="107.669352"/>
      </g>
     </g>
     <g id="text_6">
      <!-- 0.20 -->
      <defs>
       <path d="M 19.1875 8.296875 
L 53.609375 8.296875 
L 53.609375 0 
L 7.328125 0 
L 7.328125 8.296875 
Q 12.9375 14.109375 22.625 23.890625 
Q 32.328125 33.6875 34.8125 36.53125 
Q 39.546875 41.84375 41.421875 45.53125 
Q 43.3125 49.21875 43.3125 52.78125 
Q 43.3125 58.59375 39.234375 62.25 
Q 35.15625 65.921875 28.609375 65.921875 
Q 23.96875 65.921875 18.8125 64.3125 
Q 13.671875 62.703125 7.8125 59.421875 
L 7.8125 69.390625 
Q 13.765625 71.78125 18.9375 73 
Q 24.125 74.21875 28.421875 74.21875 
Q 39.75 74.21875 46.484375 68.546875 
Q 53.21875 62.890625 53.21875 53.421875 
Q 53.21875 48.921875 51.53125 44.890625 
Q 49.859375 40.875 45.40625 35.40625 
Q 44.1875 33.984375 37.640625 27.21875 
Q 31.109375 20.453125 19.1875 8.296875 
z
" id="DejaVuSans-32"/>
      </defs>
      <g transform="translate(60.734375 111.46857)scale(0.1 -0.1)">
       <use xlink:href="#DejaVuSans-30"/>
       <use x="63.623047" xlink:href="#DejaVuSans-2e"/>
       <use x="95.410156" xlink:href="#DejaVuSans-32"/>
       <use x="159.033203" xlink:href="#DejaVuSans-30"/>
      </g>
     </g>
    </g>
    <g id="text_7">
     <!-- Reconstruction Loss -->
     <defs>
      <path d="M 44.390625 34.1875 
Q 47.5625 33.109375 50.5625 29.59375 
Q 53.5625 26.078125 56.59375 19.921875 
L 66.609375 0 
L 56 0 
L 46.6875 18.703125 
Q 43.0625 26.03125 39.671875 28.421875 
Q 36.28125 30.8125 30.421875 30.8125 
L 19.671875 30.8125 
L 19.671875 0 
L 9.8125 0 
L 9.8125 72.90625 
L 32.078125 72.90625 
Q 44.578125 72.90625 50.734375 67.671875 
Q 56.890625 62.453125 56.890625 51.90625 
Q 56.890625 45.015625 53.6875 40.46875 
Q 50.484375 35.9375 44.390625 34.1875 
z
M 19.671875 64.796875 
L 19.671875 38.921875 
L 32.078125 38.921875 
Q 39.203125 38.921875 42.84375 42.21875 
Q 46.484375 45.515625 46.484375 51.90625 
Q 46.484375 58.296875 42.84375 61.546875 
Q 39.203125 64.796875 32.078125 64.796875 
z
" id="DejaVuSans-52"/>
      <path d="M 56.203125 29.59375 
L 56.203125 25.203125 
L 14.890625 25.203125 
Q 15.484375 15.921875 20.484375 11.0625 
Q 25.484375 6.203125 34.421875 6.203125 
Q 39.59375 6.203125 44.453125 7.46875 
Q 49.3125 8.734375 54.109375 11.28125 
L 54.109375 2.78125 
Q 49.265625 0.734375 44.1875 -0.34375 
Q 39.109375 -1.421875 33.890625 -1.421875 
Q 20.796875 -1.421875 13.15625 6.1875 
Q 5.515625 13.8125 5.515625 26.8125 
Q 5.515625 40.234375 12.765625 48.109375 
Q 20.015625 56 32.328125 56 
Q 43.359375 56 49.78125 48.890625 
Q 56.203125 41.796875 56.203125 29.59375 
z
M 47.21875 32.234375 
Q 47.125 39.59375 43.09375 43.984375 
Q 39.0625 48.390625 32.421875 48.390625 
Q 24.90625 48.390625 20.390625 44.140625 
Q 15.875 39.890625 15.1875 32.171875 
z
" id="DejaVuSans-65"/>
      <path d="M 48.78125 52.59375 
L 48.78125 44.1875 
Q 44.96875 46.296875 41.140625 47.34375 
Q 37.3125 48.390625 33.40625 48.390625 
Q 24.65625 48.390625 19.8125 42.84375 
Q 14.984375 37.3125 14.984375 27.296875 
Q 14.984375 17.28125 19.8125 11.734375 
Q 24.65625 6.203125 33.40625 6.203125 
Q 37.3125 6.203125 41.140625 7.25 
Q 44.96875 8.296875 48.78125 10.40625 
L 48.78125 2.09375 
Q 45.015625 0.34375 40.984375 -0.53125 
Q 36.96875 -1.421875 32.421875 -1.421875 
Q 20.0625 -1.421875 12.78125 6.34375 
Q 5.515625 14.109375 5.515625 27.296875 
Q 5.515625 40.671875 12.859375 48.328125 
Q 20.21875 56 33.015625 56 
Q 37.15625 56 41.109375 55.140625 
Q 45.0625 54.296875 48.78125 52.59375 
z
" id="DejaVuSans-63"/>
      <path d="M 30.609375 48.390625 
Q 23.390625 48.390625 19.1875 42.75 
Q 14.984375 37.109375 14.984375 27.296875 
Q 14.984375 17.484375 19.15625 11.84375 
Q 23.34375 6.203125 30.609375 6.203125 
Q 37.796875 6.203125 41.984375 11.859375 
Q 46.1875 17.53125 46.1875 27.296875 
Q 46.1875 37.015625 41.984375 42.703125 
Q 37.796875 48.390625 30.609375 48.390625 
z
M 30.609375 56 
Q 42.328125 56 49.015625 48.375 
Q 55.71875 40.765625 55.71875 27.296875 
Q 55.71875 13.875 49.015625 6.21875 
Q 42.328125 -1.421875 30.609375 -1.421875 
Q 18.84375 -1.421875 12.171875 6.21875 
Q 5.515625 13.875 5.515625 27.296875 
Q 5.515625 40.765625 12.171875 48.375 
Q 18.84375 56 30.609375 56 
z
" id="DejaVuSans-6f"/>
      <path d="M 54.890625 33.015625 
L 54.890625 0 
L 45.90625 0 
L 45.90625 32.71875 
Q 45.90625 40.484375 42.875 44.328125 
Q 39.84375 48.1875 33.796875 48.1875 
Q 26.515625 48.1875 22.3125 43.546875 
Q 18.109375 38.921875 18.109375 30.90625 
L 18.109375 0 
L 9.078125 0 
L 9.078125 54.6875 
L 18.109375 54.6875 
L 18.109375 46.1875 
Q 21.34375 51.125 25.703125 53.5625 
Q 30.078125 56 35.796875 56 
Q 45.21875 56 50.046875 50.171875 
Q 54.890625 44.34375 54.890625 33.015625 
z
" id="DejaVuSans-6e"/>
      <path d="M 44.28125 53.078125 
L 44.28125 44.578125 
Q 40.484375 46.53125 36.375 47.5 
Q 32.28125 48.484375 27.875 48.484375 
Q 21.1875 48.484375 17.84375 46.4375 
Q 14.5 44.390625 14.5 40.28125 
Q 14.5 37.15625 16.890625 35.375 
Q 19.28125 33.59375 26.515625 31.984375 
L 29.59375 31.296875 
Q 39.15625 29.25 43.1875 25.515625 
Q 47.21875 21.78125 47.21875 15.09375 
Q 47.21875 7.46875 41.1875 3.015625 
Q 35.15625 -1.421875 24.609375 -1.421875 
Q 20.21875 -1.421875 15.453125 -0.5625 
Q 10.6875 0.296875 5.421875 2 
L 5.421875 11.28125 
Q 10.40625 8.6875 15.234375 7.390625 
Q 20.0625 6.109375 24.8125 6.109375 
Q 31.15625 6.109375 34.5625 8.28125 
Q 37.984375 10.453125 37.984375 14.40625 
Q 37.984375 18.0625 35.515625 20.015625 
Q 33.0625 21.96875 24.703125 23.78125 
L 21.578125 24.515625 
Q 13.234375 26.265625 9.515625 29.90625 
Q 5.8125 33.546875 5.8125 39.890625 
Q 5.8125 47.609375 11.28125 51.796875 
Q 16.75 56 26.8125 56 
Q 31.78125 56 36.171875 55.265625 
Q 40.578125 54.546875 44.28125 53.078125 
z
" id="DejaVuSans-73"/>
      <path d="M 18.3125 70.21875 
L 18.3125 54.6875 
L 36.8125 54.6875 
L 36.8125 47.703125 
L 18.3125 47.703125 
L 18.3125 18.015625 
Q 18.3125 11.328125 20.140625 9.421875 
Q 21.96875 7.515625 27.59375 7.515625 
L 36.8125 7.515625 
L 36.8125 0 
L 27.59375 0 
Q 17.1875 0 13.234375 3.875 
Q 9.28125 7.765625 9.28125 18.015625 
L 9.28125 47.703125 
L 2.6875 47.703125 
L 2.6875 54.6875 
L 9.28125 54.6875 
L 9.28125 70.21875 
z
" id="DejaVuSans-74"/>
      <path d="M 41.109375 46.296875 
Q 39.59375 47.171875 37.8125 47.578125 
Q 36.03125 48 33.890625 48 
Q 26.265625 48 22.1875 43.046875 
Q 18.109375 38.09375 18.109375 28.8125 
L 18.109375 0 
L 9.078125 0 
L 9.078125 54.6875 
L 18.109375 54.6875 
L 18.109375 46.1875 
Q 20.953125 51.171875 25.484375 53.578125 
Q 30.03125 56 36.53125 56 
Q 37.453125 56 38.578125 55.875 
Q 39.703125 55.765625 41.0625 55.515625 
z
" id="DejaVuSans-72"/>
      <path d="M 8.5 21.578125 
L 8.5 54.6875 
L 17.484375 54.6875 
L 17.484375 21.921875 
Q 17.484375 14.15625 20.5 10.265625 
Q 23.53125 6.390625 29.59375 6.390625 
Q 36.859375 6.390625 41.078125 11.03125 
Q 45.3125 15.671875 45.3125 23.6875 
L 45.3125 54.6875 
L 54.296875 54.6875 
L 54.296875 0 
L 45.3125 0 
L 45.3125 8.40625 
Q 42.046875 3.421875 37.71875 1 
Q 33.40625 -1.421875 27.6875 -1.421875 
Q 18.265625 -1.421875 13.375 4.4375 
Q 8.5 10.296875 8.5 21.578125 
z
M 31.109375 56 
z
" id="DejaVuSans-75"/>
      <path d="M 9.421875 54.6875 
L 18.40625 54.6875 
L 18.40625 0 
L 9.421875 0 
z
M 9.421875 75.984375 
L 18.40625 75.984375 
L 18.40625 64.59375 
L 9.421875 64.59375 
z
" id="DejaVuSans-69"/>
      <path id="DejaVuSans-20"/>
      <path d="M 9.8125 72.90625 
L 19.671875 72.90625 
L 19.671875 8.296875 
L 55.171875 8.296875 
L 55.171875 0 
L 9.8125 0 
z
" id="DejaVuSans-4c"/>
     </defs>
     <g transform="translate(54.654687 216.62477)rotate(-90)scale(0.1 -0.1)">
      <use xlink:href="#DejaVuSans-52"/>
      <use x="69.419922" xlink:href="#DejaVuSans-65"/>
      <use x="130.943359" xlink:href="#DejaVuSans-63"/>
      <use x="185.923828" xlink:href="#DejaVuSans-6f"/>
      <use x="247.105469" xlink:href="#DejaVuSans-6e"/>
      <use x="310.484375" xlink:href="#DejaVuSans-73"/>
      <use x="362.583984" xlink:href="#DejaVuSans-74"/>
      <use x="401.792969" xlink:href="#DejaVuSans-72"/>
      <use x="442.90625" xlink:href="#DejaVuSans-75"/>
      <use x="506.285156" xlink:href="#DejaVuSans-63"/>
      <use x="561.265625" xlink:href="#DejaVuSans-74"/>
      <use x="600.474609" xlink:href="#DejaVuSans-69"/>
      <use x="628.257812" xlink:href="#DejaVuSans-6f"/>
      <use x="689.439453" xlink:href="#DejaVuSans-6e"/>
      <use x="752.818359" xlink:href="#DejaVuSans-20"/>
      <use x="784.605469" xlink:href="#DejaVuSans-4c"/>
      <use x="840.302734" xlink:href="#DejaVuSans-6f"/>
      <use x="901.484375" xlink:href="#DejaVuSans-73"/>
      <use x="953.583984" xlink:href="#DejaVuSans-73"/>
     </g>
    </g>
   </g>
   <g id="line2d_10">
    <path clip-path="url(#p36ec080a75)" d="M 97.459893 94.788204 
L 105.748663 104.949782 
L 114.037433 113.953934 
L 122.326203 121.081346 
L 130.614973 126.997485 
L 138.903743 131.079195 
L 147.192513 134.557783 
L 155.481283 137.951535 
L 163.770053 140.967697 
L 172.058824 142.699412 
L 180.347594 144.41766 
L 188.636364 146.110654 
L 196.925134 147.779255 
L 205.213904 149.431371 
L 213.502674 151.075042 
L 221.791444 152.707654 
L 230.080214 154.327058 
L 238.368984 155.930015 
L 246.657754 157.527724 
" style="fill:none;stroke:#1f77b4;stroke-linecap:square;stroke-width:1.5;"/>
   </g>
   <g id="patch_3">
    <path d="M 90 246.282353 
L 90 86.4 
" style="fill:none;stroke:#000000;stroke-linecap:square;stroke-linejoin:miter;stroke-width:0.8;"/>
   </g>
   <g id="patch_4">
    <path d="M 254.117647 246.282353 
L 254.117647 86.4 
" style="fill:none;stroke:#000000;stroke-linecap:square;stroke-linejoin:miter;stroke-width:0.8;"/>
   </g>
   <g id="patch_5">
    <path d="M 90 246.282353 
L 254.117647 246.282353 
" style="fill:none;stroke:#000000;stroke-linecap:square;stroke-linejoin:miter;stroke-width:0.8;"/>
   </g>
   <g id="patch_6">
    <path d="M 90 86.4 
L 254.117647 86.4 
" style="fill:none;stroke:#000000;stroke-linecap:square;stroke-linejoin:miter;stroke-width:0.8;"/>
   </g>
   <g id="text_8">
    <!-- pca -->
    <defs>
     <path d="M 18.109375 8.203125 
L 18.109375 -20.796875 
L 9.078125 -20.796875 
L 9.078125 54.6875 
L 18.109375 54.6875 
L 18.109375 46.390625 
Q 20.953125 51.265625 25.265625 53.625 
Q 29.59375 56 35.59375 56 
Q 45.5625 56 51.78125 48.09375 
Q 58.015625 40.1875 58.015625 27.296875 
Q 58.015625 14.40625 51.78125 6.484375 
Q 45.5625 -1.421875 35.59375 -1.421875 
Q 29.59375 -1.421875 25.265625 0.953125 
Q 20.953125 3.328125 18.109375 8.203125 
z
M 48.6875 27.296875 
Q 48.6875 37.203125 44.609375 42.84375 
Q 40.53125 48.484375 33.40625 48.484375 
Q 26.265625 48.484375 22.1875 42.84375 
Q 18.109375 37.203125 18.109375 27.296875 
Q 18.109375 17.390625 22.1875 11.75 
Q 26.265625 6.109375 33.40625 6.109375 
Q 40.53125 6.109375 44.609375 11.75 
Q 48.6875 17.390625 48.6875 27.296875 
z
" id="DejaVuSans-70"/>
     <path d="M 34.28125 27.484375 
Q 23.390625 27.484375 19.1875 25 
Q 14.984375 22.515625 14.984375 16.5 
Q 14.984375 11.71875 18.140625 8.90625 
Q 21.296875 6.109375 26.703125 6.109375 
Q 34.1875 6.109375 38.703125 11.40625 
Q 43.21875 16.703125 43.21875 25.484375 
L 43.21875 27.484375 
z
M 52.203125 31.203125 
L 52.203125 0 
L 43.21875 0 
L 43.21875 8.296875 
Q 40.140625 3.328125 35.546875 0.953125 
Q 30.953125 -1.421875 24.3125 -1.421875 
Q 15.921875 -1.421875 10.953125 3.296875 
Q 6 8.015625 6 15.921875 
Q 6 25.140625 12.171875 29.828125 
Q 18.359375 34.515625 30.609375 34.515625 
L 43.21875 34.515625 
L 43.21875 35.40625 
Q 43.21875 41.609375 39.140625 45 
Q 35.0625 48.390625 27.6875 48.390625 
Q 23 48.390625 18.546875 47.265625 
Q 14.109375 46.140625 10.015625 43.890625 
L 10.015625 52.203125 
Q 14.9375 54.109375 19.578125 55.046875 
Q 24.21875 56 28.609375 56 
Q 40.484375 56 46.34375 49.84375 
Q 52.203125 43.703125 52.203125 31.203125 
z
" id="DejaVuSans-61"/>
    </defs>
    <g transform="translate(161.273824 80.4)scale(0.12 -0.12)">
     <use xlink:href="#DejaVuSans-70"/>
     <use x="63.476562" xlink:href="#DejaVuSans-63"/>
     <use x="118.457031" xlink:href="#DejaVuSans-61"/>
    </g>
   </g>
  </g>
  <g id="axes_2">
   <g id="patch_7">
    <path d="M 286.941176 246.282353 
L 451.058824 246.282353 
L 451.058824 86.4 
L 286.941176 86.4 
z
" style="fill:#ffffff;"/>
   </g>
   <g id="matplotlib.axis_3">
    <g id="xtick_4">
     <g id="line2d_11">
      <g>
       <use style="stroke:#000000;stroke-width:0.8;" x="331.700535" xlink:href="#mbfd961fbd6" y="246.282353"/>
      </g>
     </g>
    </g>
    <g id="xtick_5">
     <g id="line2d_12">
      <g>
       <use style="stroke:#000000;stroke-width:0.8;" x="393.86631" xlink:href="#mbfd961fbd6" y="246.282353"/>
      </g>
     </g>
    </g>
   </g>
   <g id="matplotlib.axis_4">
    <g id="ytick_7">
     <g id="line2d_13">
      <g>
       <use style="stroke:#000000;stroke-width:0.8;" x="286.941176" xlink:href="#m620cf92398" y="228.719724"/>
      </g>
     </g>
    </g>
    <g id="ytick_8">
     <g id="line2d_14">
      <g>
       <use style="stroke:#000000;stroke-width:0.8;" x="286.941176" xlink:href="#m620cf92398" y="204.50965"/>
      </g>
     </g>
    </g>
    <g id="ytick_9">
     <g id="line2d_15">
      <g>
       <use style="stroke:#000000;stroke-width:0.8;" x="286.941176" xlink:href="#m620cf92398" y="180.299575"/>
      </g>
     </g>
    </g>
    <g id="ytick_10">
     <g id="line2d_16">
      <g>
       <use style="stroke:#000000;stroke-width:0.8;" x="286.941176" xlink:href="#m620cf92398" y="156.089501"/>
      </g>
     </g>
    </g>
    <g id="ytick_11">
     <g id="line2d_17">
      <g>
       <use style="stroke:#000000;stroke-width:0.8;" x="286.941176" xlink:href="#m620cf92398" y="131.879426"/>
      </g>
     </g>
    </g>
    <g id="ytick_12">
     <g id="line2d_18">
      <g>
       <use style="stroke:#000000;stroke-width:0.8;" x="286.941176" xlink:href="#m620cf92398" y="107.669352"/>
      </g>
     </g>
    </g>
   </g>
   <g id="line2d_19">
    <path clip-path="url(#p81eb22d7af)" d="M 294.40107 239.014973 
L 306.834225 182.389117 
L 319.26738 154.670746 
L 331.700535 139.517056 
L 344.13369 130.419609 
L 356.566845 124.497311 
L 369 120.358522 
L 381.433155 117.282364 
L 393.86631 114.873527 
L 406.299465 112.904661 
L 418.73262 111.239539 
L 431.165775 109.793509 
L 443.59893 108.512181 
" style="fill:none;stroke:#1f77b4;stroke-linecap:square;stroke-width:1.5;"/>
   </g>
   <g id="patch_8">
    <path d="M 286.941176 246.282353 
L 286.941176 86.4 
" style="fill:none;stroke:#000000;stroke-linecap:square;stroke-linejoin:miter;stroke-width:0.8;"/>
   </g>
   <g id="patch_9">
    <path d="M 451.058824 246.282353 
L 451.058824 86.4 
" style="fill:none;stroke:#000000;stroke-linecap:square;stroke-linejoin:miter;stroke-width:0.8;"/>
   </g>
   <g id="patch_10">
    <path d="M 286.941176 246.282353 
L 451.058824 246.282353 
" style="fill:none;stroke:#000000;stroke-linecap:square;stroke-linejoin:miter;stroke-width:0.8;"/>
   </g>
   <g id="patch_11">
    <path d="M 286.941176 86.4 
L 451.058824 86.4 
" style="fill:none;stroke:#000000;stroke-linecap:square;stroke-linejoin:miter;stroke-width:0.8;"/>
   </g>
   <g id="text_9">
    <!-- diffusion -->
    <defs>
     <path d="M 45.40625 46.390625 
L 45.40625 75.984375 
L 54.390625 75.984375 
L 54.390625 0 
L 45.40625 0 
L 45.40625 8.203125 
Q 42.578125 3.328125 38.25 0.953125 
Q 33.9375 -1.421875 27.875 -1.421875 
Q 17.96875 -1.421875 11.734375 6.484375 
Q 5.515625 14.40625 5.515625 27.296875 
Q 5.515625 40.1875 11.734375 48.09375 
Q 17.96875 56 27.875 56 
Q 33.9375 56 38.25 53.625 
Q 42.578125 51.265625 45.40625 46.390625 
z
M 14.796875 27.296875 
Q 14.796875 17.390625 18.875 11.75 
Q 22.953125 6.109375 30.078125 6.109375 
Q 37.203125 6.109375 41.296875 11.75 
Q 45.40625 17.390625 45.40625 27.296875 
Q 45.40625 37.203125 41.296875 42.84375 
Q 37.203125 48.484375 30.078125 48.484375 
Q 22.953125 48.484375 18.875 42.84375 
Q 14.796875 37.203125 14.796875 27.296875 
z
" id="DejaVuSans-64"/>
     <path d="M 37.109375 75.984375 
L 37.109375 68.5 
L 28.515625 68.5 
Q 23.6875 68.5 21.796875 66.546875 
Q 19.921875 64.59375 19.921875 59.515625 
L 19.921875 54.6875 
L 34.71875 54.6875 
L 34.71875 47.703125 
L 19.921875 47.703125 
L 19.921875 0 
L 10.890625 0 
L 10.890625 47.703125 
L 2.296875 47.703125 
L 2.296875 54.6875 
L 10.890625 54.6875 
L 10.890625 58.5 
Q 10.890625 67.625 15.140625 71.796875 
Q 19.390625 75.984375 28.609375 75.984375 
z
" id="DejaVuSans-66"/>
    </defs>
    <g transform="translate(343.230937 80.4)scale(0.12 -0.12)">
     <use xlink:href="#DejaVuSans-64"/>
     <use x="63.476562" xlink:href="#DejaVuSans-69"/>
     <use x="91.259766" xlink:href="#DejaVuSans-66"/>
     <use x="126.464844" xlink:href="#DejaVuSans-66"/>
     <use x="161.669922" xlink:href="#DejaVuSans-75"/>
     <use x="225.048828" xlink:href="#DejaVuSans-73"/>
     <use x="277.148438" xlink:href="#DejaVuSans-69"/>
     <use x="304.931641" xlink:href="#DejaVuSans-6f"/>
     <use x="366.113281" xlink:href="#DejaVuSans-6e"/>
    </g>
   </g>
  </g>
  <g id="axes_3">
   <g id="patch_12">
    <path d="M 483.882353 246.282353 
L 648 246.282353 
L 648 86.4 
L 483.882353 86.4 
z
" style="fill:#ffffff;"/>
   </g>
   <g id="matplotlib.axis_5">
    <g id="xtick_6">
     <g id="line2d_20">
      <g>
       <use style="stroke:#000000;stroke-width:0.8;" x="484.855382" xlink:href="#mbfd961fbd6" y="246.282353"/>
      </g>
     </g>
    </g>
    <g id="xtick_7">
     <g id="line2d_21">
      <g>
       <use style="stroke:#000000;stroke-width:0.8;" x="549.724018" xlink:href="#mbfd961fbd6" y="246.282353"/>
      </g>
     </g>
    </g>
    <g id="xtick_8">
     <g id="line2d_22">
      <g>
       <use style="stroke:#000000;stroke-width:0.8;" x="614.592653" xlink:href="#mbfd961fbd6" y="246.282353"/>
      </g>
     </g>
    </g>
   </g>
   <g id="matplotlib.axis_6">
    <g id="ytick_13">
     <g id="line2d_23">
      <g>
       <use style="stroke:#000000;stroke-width:0.8;" x="483.882353" xlink:href="#m620cf92398" y="228.719724"/>
      </g>
     </g>
    </g>
    <g id="ytick_14">
     <g id="line2d_24">
      <g>
       <use style="stroke:#000000;stroke-width:0.8;" x="483.882353" xlink:href="#m620cf92398" y="204.50965"/>
      </g>
     </g>
    </g>
    <g id="ytick_15">
     <g id="line2d_25">
      <g>
       <use style="stroke:#000000;stroke-width:0.8;" x="483.882353" xlink:href="#m620cf92398" y="180.299575"/>
      </g>
     </g>
    </g>
    <g id="ytick_16">
     <g id="line2d_26">
      <g>
       <use style="stroke:#000000;stroke-width:0.8;" x="483.882353" xlink:href="#m620cf92398" y="156.089501"/>
      </g>
     </g>
    </g>
    <g id="ytick_17">
     <g id="line2d_27">
      <g>
       <use style="stroke:#000000;stroke-width:0.8;" x="483.882353" xlink:href="#m620cf92398" y="131.879426"/>
      </g>
     </g>
    </g>
    <g id="ytick_18">
     <g id="line2d_28">
      <g>
       <use style="stroke:#000000;stroke-width:0.8;" x="483.882353" xlink:href="#m620cf92398" y="107.669352"/>
      </g>
     </g>
    </g>
   </g>
   <g id="line2d_29">
    <path clip-path="url(#p29f1ee6dcc)" d="M 491.342246 93.66738 
L 494.585678 96.834999 
L 497.82911 103.10155 
L 504.315973 113.632984 
L 510.802837 128.379626 
L 523.776564 133.432586 
L 536.750291 141.553073 
L 562.697745 151.654286 
L 588.645199 160.928911 
L 640.540107 189.351139 
" style="fill:none;stroke:#1f77b4;stroke-linecap:square;stroke-width:1.5;"/>
   </g>
   <g id="patch_13">
    <path d="M 483.882353 246.282353 
L 483.882353 86.4 
" style="fill:none;stroke:#000000;stroke-linecap:square;stroke-linejoin:miter;stroke-width:0.8;"/>
   </g>
   <g id="patch_14">
    <path d="M 648 246.282353 
L 648 86.4 
" style="fill:none;stroke:#000000;stroke-linecap:square;stroke-linejoin:miter;stroke-width:0.8;"/>
   </g>
   <g id="patch_15">
    <path d="M 483.882353 246.282353 
L 648 246.282353 
" style="fill:none;stroke:#000000;stroke-linecap:square;stroke-linejoin:miter;stroke-width:0.8;"/>
   </g>
   <g id="patch_16">
    <path d="M 483.882353 86.4 
L 648 86.4 
" style="fill:none;stroke:#000000;stroke-linecap:square;stroke-linejoin:miter;stroke-width:0.8;"/>
   </g>
   <g id="text_10">
    <!-- autoencoder -->
    <g transform="translate(528.006176 80.4)scale(0.12 -0.12)">
     <use xlink:href="#DejaVuSans-61"/>
     <use x="61.279297" xlink:href="#DejaVuSans-75"/>
     <use x="124.658203" xlink:href="#DejaVuSans-74"/>
     <use x="163.867188" xlink:href="#DejaVuSans-6f"/>
     <use x="225.048828" xlink:href="#DejaVuSans-65"/>
     <use x="286.572266" xlink:href="#DejaVuSans-6e"/>
     <use x="349.951172" xlink:href="#DejaVuSans-63"/>
     <use x="404.931641" xlink:href="#DejaVuSans-6f"/>
     <use x="466.113281" xlink:href="#DejaVuSans-64"/>
     <use x="529.589844" xlink:href="#DejaVuSans-65"/>
     <use x="591.113281" xlink:href="#DejaVuSans-72"/>
    </g>
   </g>
  </g>
  <g id="axes_4">
   <g id="patch_17">
    <path d="M 90 438.141176 
L 254.117647 438.141176 
L 254.117647 278.258824 
L 90 278.258824 
z
" style="fill:#ffffff;"/>
   </g>
   <g id="matplotlib.axis_7">
    <g id="xtick_9">
     <g id="line2d_30">
      <g>
       <use style="stroke:#000000;stroke-width:0.8;" x="130.614973" xlink:href="#mbfd961fbd6" y="438.141176"/>
      </g>
     </g>
    </g>
    <g id="xtick_10">
     <g id="line2d_31">
      <g>
       <use style="stroke:#000000;stroke-width:0.8;" x="172.058824" xlink:href="#mbfd961fbd6" y="438.141176"/>
      </g>
     </g>
    </g>
    <g id="xtick_11">
     <g id="line2d_32">
      <g>
       <use style="stroke:#000000;stroke-width:0.8;" x="213.502674" xlink:href="#mbfd961fbd6" y="438.141176"/>
      </g>
     </g>
    </g>
   </g>
   <g id="matplotlib.axis_8">
    <g id="ytick_19">
     <g id="line2d_33">
      <g>
       <use style="stroke:#000000;stroke-width:0.8;" x="90" xlink:href="#m620cf92398" y="426.769512"/>
      </g>
     </g>
     <g id="text_11">
      <!-- 0.1950 -->
      <g transform="translate(48.009375 430.568731)scale(0.1 -0.1)">
       <use xlink:href="#DejaVuSans-30"/>
       <use x="63.623047" xlink:href="#DejaVuSans-2e"/>
       <use x="95.410156" xlink:href="#DejaVuSans-31"/>
       <use x="159.033203" xlink:href="#DejaVuSans-39"/>
       <use x="222.65625" xlink:href="#DejaVuSans-35"/>
       <use x="286.279297" xlink:href="#DejaVuSans-30"/>
      </g>
     </g>
    </g>
    <g id="ytick_20">
     <g id="line2d_34">
      <g>
       <use style="stroke:#000000;stroke-width:0.8;" x="90" xlink:href="#m620cf92398" y="402.546017"/>
      </g>
     </g>
     <g id="text_12">
      <!-- 0.1975 -->
      <g transform="translate(48.009375 406.345236)scale(0.1 -0.1)">
       <use xlink:href="#DejaVuSans-30"/>
       <use x="63.623047" xlink:href="#DejaVuSans-2e"/>
       <use x="95.410156" xlink:href="#DejaVuSans-31"/>
       <use x="159.033203" xlink:href="#DejaVuSans-39"/>
       <use x="222.65625" xlink:href="#DejaVuSans-37"/>
       <use x="286.279297" xlink:href="#DejaVuSans-35"/>
      </g>
     </g>
    </g>
    <g id="ytick_21">
     <g id="line2d_35">
      <g>
       <use style="stroke:#000000;stroke-width:0.8;" x="90" xlink:href="#m620cf92398" y="378.322522"/>
      </g>
     </g>
     <g id="text_13">
      <!-- 0.2000 -->
      <g transform="translate(48.009375 382.121741)scale(0.1 -0.1)">
       <use xlink:href="#DejaVuSans-30"/>
       <use x="63.623047" xlink:href="#DejaVuSans-2e"/>
       <use x="95.410156" xlink:href="#DejaVuSans-32"/>
       <use x="159.033203" xlink:href="#DejaVuSans-30"/>
       <use x="222.65625" xlink:href="#DejaVuSans-30"/>
       <use x="286.279297" xlink:href="#DejaVuSans-30"/>
      </g>
     </g>
    </g>
    <g id="ytick_22">
     <g id="line2d_36">
      <g>
       <use style="stroke:#000000;stroke-width:0.8;" x="90" xlink:href="#m620cf92398" y="354.099027"/>
      </g>
     </g>
     <g id="text_14">
      <!-- 0.2025 -->
      <g transform="translate(48.009375 357.898246)scale(0.1 -0.1)">
       <use xlink:href="#DejaVuSans-30"/>
       <use x="63.623047" xlink:href="#DejaVuSans-2e"/>
       <use x="95.410156" xlink:href="#DejaVuSans-32"/>
       <use x="159.033203" xlink:href="#DejaVuSans-30"/>
       <use x="222.65625" xlink:href="#DejaVuSans-32"/>
       <use x="286.279297" xlink:href="#DejaVuSans-35"/>
      </g>
     </g>
    </g>
    <g id="ytick_23">
     <g id="line2d_37">
      <g>
       <use style="stroke:#000000;stroke-width:0.8;" x="90" xlink:href="#m620cf92398" y="329.875532"/>
      </g>
     </g>
     <g id="text_15">
      <!-- 0.2050 -->
      <g transform="translate(48.009375 333.674751)scale(0.1 -0.1)">
       <use xlink:href="#DejaVuSans-30"/>
       <use x="63.623047" xlink:href="#DejaVuSans-2e"/>
       <use x="95.410156" xlink:href="#DejaVuSans-32"/>
       <use x="159.033203" xlink:href="#DejaVuSans-30"/>
       <use x="222.65625" xlink:href="#DejaVuSans-35"/>
       <use x="286.279297" xlink:href="#DejaVuSans-30"/>
      </g>
     </g>
    </g>
    <g id="ytick_24">
     <g id="line2d_38">
      <g>
       <use style="stroke:#000000;stroke-width:0.8;" x="90" xlink:href="#m620cf92398" y="305.652037"/>
      </g>
     </g>
     <g id="text_16">
      <!-- 0.2075 -->
      <g transform="translate(48.009375 309.451256)scale(0.1 -0.1)">
       <use xlink:href="#DejaVuSans-30"/>
       <use x="63.623047" xlink:href="#DejaVuSans-2e"/>
       <use x="95.410156" xlink:href="#DejaVuSans-32"/>
       <use x="159.033203" xlink:href="#DejaVuSans-30"/>
       <use x="222.65625" xlink:href="#DejaVuSans-37"/>
       <use x="286.279297" xlink:href="#DejaVuSans-35"/>
      </g>
     </g>
    </g>
    <g id="ytick_25">
     <g id="line2d_39">
      <g>
       <use style="stroke:#000000;stroke-width:0.8;" x="90" xlink:href="#m620cf92398" y="281.428542"/>
      </g>
     </g>
     <g id="text_17">
      <!-- 0.2100 -->
      <g transform="translate(48.009375 285.227761)scale(0.1 -0.1)">
       <use xlink:href="#DejaVuSans-30"/>
       <use x="63.623047" xlink:href="#DejaVuSans-2e"/>
       <use x="95.410156" xlink:href="#DejaVuSans-32"/>
       <use x="159.033203" xlink:href="#DejaVuSans-31"/>
       <use x="222.65625" xlink:href="#DejaVuSans-30"/>
       <use x="286.279297" xlink:href="#DejaVuSans-30"/>
      </g>
     </g>
    </g>
    <g id="text_18">
     <!-- Self-Supervised Loss -->
     <defs>
      <path d="M 53.515625 70.515625 
L 53.515625 60.890625 
Q 47.90625 63.578125 42.921875 64.890625 
Q 37.9375 66.21875 33.296875 66.21875 
Q 25.25 66.21875 20.875 63.09375 
Q 16.5 59.96875 16.5 54.203125 
Q 16.5 49.359375 19.40625 46.890625 
Q 22.3125 44.4375 30.421875 42.921875 
L 36.375 41.703125 
Q 47.40625 39.59375 52.65625 34.296875 
Q 57.90625 29 57.90625 20.125 
Q 57.90625 9.515625 50.796875 4.046875 
Q 43.703125 -1.421875 29.984375 -1.421875 
Q 24.8125 -1.421875 18.96875 -0.25 
Q 13.140625 0.921875 6.890625 3.21875 
L 6.890625 13.375 
Q 12.890625 10.015625 18.65625 8.296875 
Q 24.421875 6.59375 29.984375 6.59375 
Q 38.421875 6.59375 43.015625 9.90625 
Q 47.609375 13.234375 47.609375 19.390625 
Q 47.609375 24.75 44.3125 27.78125 
Q 41.015625 30.8125 33.5 32.328125 
L 27.484375 33.5 
Q 16.453125 35.6875 11.515625 40.375 
Q 6.59375 45.0625 6.59375 53.421875 
Q 6.59375 63.09375 13.40625 68.65625 
Q 20.21875 74.21875 32.171875 74.21875 
Q 37.3125 74.21875 42.625 73.28125 
Q 47.953125 72.359375 53.515625 70.515625 
z
" id="DejaVuSans-53"/>
      <path d="M 9.421875 75.984375 
L 18.40625 75.984375 
L 18.40625 0 
L 9.421875 0 
z
" id="DejaVuSans-6c"/>
      <path d="M 4.890625 31.390625 
L 31.203125 31.390625 
L 31.203125 23.390625 
L 4.890625 23.390625 
z
" id="DejaVuSans-2d"/>
      <path d="M 2.984375 54.6875 
L 12.5 54.6875 
L 29.59375 8.796875 
L 46.6875 54.6875 
L 56.203125 54.6875 
L 35.6875 0 
L 23.484375 0 
z
" id="DejaVuSans-76"/>
     </defs>
     <g transform="translate(41.929687 409.896094)rotate(-90)scale(0.1 -0.1)">
      <use xlink:href="#DejaVuSans-53"/>
      <use x="63.476562" xlink:href="#DejaVuSans-65"/>
      <use x="125" xlink:href="#DejaVuSans-6c"/>
      <use x="152.783203" xlink:href="#DejaVuSans-66"/>
      <use x="187.910156" xlink:href="#DejaVuSans-2d"/>
      <use x="223.994141" xlink:href="#DejaVuSans-53"/>
      <use x="287.470703" xlink:href="#DejaVuSans-75"/>
      <use x="350.849609" xlink:href="#DejaVuSans-70"/>
      <use x="414.326172" xlink:href="#DejaVuSans-65"/>
      <use x="475.849609" xlink:href="#DejaVuSans-72"/>
      <use x="516.962891" xlink:href="#DejaVuSans-76"/>
      <use x="576.142578" xlink:href="#DejaVuSans-69"/>
      <use x="603.925781" xlink:href="#DejaVuSans-73"/>
      <use x="656.025391" xlink:href="#DejaVuSans-65"/>
      <use x="717.548828" xlink:href="#DejaVuSans-64"/>
      <use x="781.025391" xlink:href="#DejaVuSans-20"/>
      <use x="812.8125" xlink:href="#DejaVuSans-4c"/>
      <use x="868.509766" xlink:href="#DejaVuSans-6f"/>
      <use x="929.691406" xlink:href="#DejaVuSans-73"/>
      <use x="981.791016" xlink:href="#DejaVuSans-73"/>
     </g>
    </g>
   </g>
   <g id="line2d_40">
    <path clip-path="url(#p4a4bf80c8a)" d="M 97.459893 317.37346 
L 105.748663 349.599077 
L 114.037433 377.449625 
L 122.326203 396.74431 
L 130.614973 410.800978 
L 138.903743 418.230936 
L 147.192513 422.890453 
L 155.481283 427.587211 
L 163.770053 430.873797 
L 172.058824 424.35374 
L 180.347594 417.780351 
L 188.636364 411.666991 
L 196.925134 405.392002 
L 205.213904 399.170119 
L 213.502674 393.111744 
L 221.791444 386.729171 
L 230.080214 380.376573 
L 238.368984 374.283554 
L 246.657754 368.444947 
" style="fill:none;stroke:#1f77b4;stroke-linecap:square;stroke-width:1.5;"/>
   </g>
   <g id="patch_18">
    <path d="M 90 438.141176 
L 90 278.258824 
" style="fill:none;stroke:#000000;stroke-linecap:square;stroke-linejoin:miter;stroke-width:0.8;"/>
   </g>
   <g id="patch_19">
    <path d="M 254.117647 438.141176 
L 254.117647 278.258824 
" style="fill:none;stroke:#000000;stroke-linecap:square;stroke-linejoin:miter;stroke-width:0.8;"/>
   </g>
   <g id="patch_20">
    <path d="M 90 438.141176 
L 254.117647 438.141176 
" style="fill:none;stroke:#000000;stroke-linecap:square;stroke-linejoin:miter;stroke-width:0.8;"/>
   </g>
   <g id="patch_21">
    <path d="M 90 278.258824 
L 254.117647 278.258824 
" style="fill:none;stroke:#000000;stroke-linecap:square;stroke-linejoin:miter;stroke-width:0.8;"/>
   </g>
  </g>
  <g id="axes_5">
   <g id="patch_22">
    <path d="M 286.941176 438.141176 
L 451.058824 438.141176 
L 451.058824 278.258824 
L 286.941176 278.258824 
z
" style="fill:#ffffff;"/>
   </g>
   <g id="matplotlib.axis_9">
    <g id="xtick_12">
     <g id="line2d_41">
      <g>
       <use style="stroke:#000000;stroke-width:0.8;" x="331.700535" xlink:href="#mbfd961fbd6" y="438.141176"/>
      </g>
     </g>
    </g>
    <g id="xtick_13">
     <g id="line2d_42">
      <g>
       <use style="stroke:#000000;stroke-width:0.8;" x="393.86631" xlink:href="#mbfd961fbd6" y="438.141176"/>
      </g>
     </g>
    </g>
   </g>
   <g id="matplotlib.axis_10">
    <g id="ytick_26">
     <g id="line2d_43">
      <g>
       <use style="stroke:#000000;stroke-width:0.8;" x="286.941176" xlink:href="#m620cf92398" y="426.769512"/>
      </g>
     </g>
    </g>
    <g id="ytick_27">
     <g id="line2d_44">
      <g>
       <use style="stroke:#000000;stroke-width:0.8;" x="286.941176" xlink:href="#m620cf92398" y="402.546017"/>
      </g>
     </g>
    </g>
    <g id="ytick_28">
     <g id="line2d_45">
      <g>
       <use style="stroke:#000000;stroke-width:0.8;" x="286.941176" xlink:href="#m620cf92398" y="378.322522"/>
      </g>
     </g>
    </g>
    <g id="ytick_29">
     <g id="line2d_46">
      <g>
       <use style="stroke:#000000;stroke-width:0.8;" x="286.941176" xlink:href="#m620cf92398" y="354.099027"/>
      </g>
     </g>
    </g>
    <g id="ytick_30">
     <g id="line2d_47">
      <g>
       <use style="stroke:#000000;stroke-width:0.8;" x="286.941176" xlink:href="#m620cf92398" y="329.875532"/>
      </g>
     </g>
    </g>
    <g id="ytick_31">
     <g id="line2d_48">
      <g>
       <use style="stroke:#000000;stroke-width:0.8;" x="286.941176" xlink:href="#m620cf92398" y="305.652037"/>
      </g>
     </g>
    </g>
    <g id="ytick_32">
     <g id="line2d_49">
      <g>
       <use style="stroke:#000000;stroke-width:0.8;" x="286.941176" xlink:href="#m620cf92398" y="281.428542"/>
      </g>
     </g>
    </g>
   </g>
   <g id="line2d_50">
    <path clip-path="url(#pc8d7b05ca5)" d="M 294.40107 378.921338 
L 306.834225 412.016513 
L 319.26738 416.277155 
L 331.700535 413.030226 
L 344.13369 407.760384 
L 356.566845 402.115098 
L 369 396.618454 
L 381.433155 391.427384 
L 393.86631 386.572511 
L 406.299465 382.041639 
L 418.73262 377.810025 
L 431.165775 373.851342 
L 443.59893 370.141358 
" style="fill:none;stroke:#1f77b4;stroke-linecap:square;stroke-width:1.5;"/>
   </g>
   <g id="patch_23">
    <path d="M 286.941176 438.141176 
L 286.941176 278.258824 
" style="fill:none;stroke:#000000;stroke-linecap:square;stroke-linejoin:miter;stroke-width:0.8;"/>
   </g>
   <g id="patch_24">
    <path d="M 451.058824 438.141176 
L 451.058824 278.258824 
" style="fill:none;stroke:#000000;stroke-linecap:square;stroke-linejoin:miter;stroke-width:0.8;"/>
   </g>
   <g id="patch_25">
    <path d="M 286.941176 438.141176 
L 451.058824 438.141176 
" style="fill:none;stroke:#000000;stroke-linecap:square;stroke-linejoin:miter;stroke-width:0.8;"/>
   </g>
   <g id="patch_26">
    <path d="M 286.941176 278.258824 
L 451.058824 278.258824 
" style="fill:none;stroke:#000000;stroke-linecap:square;stroke-linejoin:miter;stroke-width:0.8;"/>
   </g>
  </g>
  <g id="axes_6">
   <g id="patch_27">
    <path d="M 483.882353 438.141176 
L 648 438.141176 
L 648 278.258824 
L 483.882353 278.258824 
z
" style="fill:#ffffff;"/>
   </g>
   <g id="matplotlib.axis_11">
    <g id="xtick_14">
     <g id="line2d_51">
      <g>
       <use style="stroke:#000000;stroke-width:0.8;" x="484.855382" xlink:href="#mbfd961fbd6" y="438.141176"/>
      </g>
     </g>
    </g>
    <g id="xtick_15">
     <g id="line2d_52">
      <g>
       <use style="stroke:#000000;stroke-width:0.8;" x="549.724018" xlink:href="#mbfd961fbd6" y="438.141176"/>
      </g>
     </g>
    </g>
    <g id="xtick_16">
     <g id="line2d_53">
      <g>
       <use style="stroke:#000000;stroke-width:0.8;" x="614.592653" xlink:href="#mbfd961fbd6" y="438.141176"/>
      </g>
     </g>
    </g>
   </g>
   <g id="matplotlib.axis_12">
    <g id="ytick_33">
     <g id="line2d_54">
      <g>
       <use style="stroke:#000000;stroke-width:0.8;" x="483.882353" xlink:href="#m620cf92398" y="426.769512"/>
      </g>
     </g>
    </g>
    <g id="ytick_34">
     <g id="line2d_55">
      <g>
       <use style="stroke:#000000;stroke-width:0.8;" x="483.882353" xlink:href="#m620cf92398" y="402.546017"/>
      </g>
     </g>
    </g>
    <g id="ytick_35">
     <g id="line2d_56">
      <g>
       <use style="stroke:#000000;stroke-width:0.8;" x="483.882353" xlink:href="#m620cf92398" y="378.322522"/>
      </g>
     </g>
    </g>
    <g id="ytick_36">
     <g id="line2d_57">
      <g>
       <use style="stroke:#000000;stroke-width:0.8;" x="483.882353" xlink:href="#m620cf92398" y="354.099027"/>
      </g>
     </g>
    </g>
    <g id="ytick_37">
     <g id="line2d_58">
      <g>
       <use style="stroke:#000000;stroke-width:0.8;" x="483.882353" xlink:href="#m620cf92398" y="329.875532"/>
      </g>
     </g>
    </g>
    <g id="ytick_38">
     <g id="line2d_59">
      <g>
       <use style="stroke:#000000;stroke-width:0.8;" x="483.882353" xlink:href="#m620cf92398" y="305.652037"/>
      </g>
     </g>
    </g>
    <g id="ytick_39">
     <g id="line2d_60">
      <g>
       <use style="stroke:#000000;stroke-width:0.8;" x="483.882353" xlink:href="#m620cf92398" y="281.428542"/>
      </g>
     </g>
    </g>
   </g>
   <g id="line2d_61">
    <path clip-path="url(#p0df4ee5619)" d="M 491.342246 313.634379 
L 494.585678 321.493956 
L 497.82911 337.39633 
L 504.315973 369.835066 
L 510.802837 401.913927 
L 523.776564 402.753805 
L 536.750291 399.379568 
L 562.697745 388.415534 
L 588.645199 366.014468 
L 640.540107 285.526203 
" style="fill:none;stroke:#1f77b4;stroke-linecap:square;stroke-width:1.5;"/>
   </g>
   <g id="patch_28">
    <path d="M 483.882353 438.141176 
L 483.882353 278.258824 
" style="fill:none;stroke:#000000;stroke-linecap:square;stroke-linejoin:miter;stroke-width:0.8;"/>
   </g>
   <g id="patch_29">
    <path d="M 648 438.141176 
L 648 278.258824 
" style="fill:none;stroke:#000000;stroke-linecap:square;stroke-linejoin:miter;stroke-width:0.8;"/>
   </g>
   <g id="patch_30">
    <path d="M 483.882353 438.141176 
L 648 438.141176 
" style="fill:none;stroke:#000000;stroke-linecap:square;stroke-linejoin:miter;stroke-width:0.8;"/>
   </g>
   <g id="patch_31">
    <path d="M 483.882353 278.258824 
L 648 278.258824 
" style="fill:none;stroke:#000000;stroke-linecap:square;stroke-linejoin:miter;stroke-width:0.8;"/>
   </g>
  </g>
  <g id="axes_7">
   <g id="patch_32">
    <path d="M 90 630 
L 254.117647 630 
L 254.117647 470.117647 
L 90 470.117647 
z
" style="fill:#ffffff;"/>
   </g>
   <g id="matplotlib.axis_13">
    <g id="xtick_17">
     <g id="line2d_62">
      <g>
       <use style="stroke:#000000;stroke-width:0.8;" x="130.614973" xlink:href="#mbfd961fbd6" y="630"/>
      </g>
     </g>
     <g id="text_19">
      <!-- 5 -->
      <g transform="translate(127.433723 644.598438)scale(0.1 -0.1)">
       <use xlink:href="#DejaVuSans-35"/>
      </g>
     </g>
    </g>
    <g id="xtick_18">
     <g id="line2d_63">
      <g>
       <use style="stroke:#000000;stroke-width:0.8;" x="172.058824" xlink:href="#mbfd961fbd6" y="630"/>
      </g>
     </g>
     <g id="text_20">
      <!-- 10 -->
      <g transform="translate(165.696324 644.598438)scale(0.1 -0.1)">
       <use xlink:href="#DejaVuSans-31"/>
       <use x="63.623047" xlink:href="#DejaVuSans-30"/>
      </g>
     </g>
    </g>
    <g id="xtick_19">
     <g id="line2d_64">
      <g>
       <use style="stroke:#000000;stroke-width:0.8;" x="213.502674" xlink:href="#mbfd961fbd6" y="630"/>
      </g>
     </g>
     <g id="text_21">
      <!-- 15 -->
      <g transform="translate(207.140174 644.598438)scale(0.1 -0.1)">
       <use xlink:href="#DejaVuSans-31"/>
       <use x="63.623047" xlink:href="#DejaVuSans-35"/>
      </g>
     </g>
    </g>
    <g id="text_22">
     <!-- Principal Components -->
     <defs>
      <path d="M 19.671875 64.796875 
L 19.671875 37.40625 
L 32.078125 37.40625 
Q 38.96875 37.40625 42.71875 40.96875 
Q 46.484375 44.53125 46.484375 51.125 
Q 46.484375 57.671875 42.71875 61.234375 
Q 38.96875 64.796875 32.078125 64.796875 
z
M 9.8125 72.90625 
L 32.078125 72.90625 
Q 44.34375 72.90625 50.609375 67.359375 
Q 56.890625 61.8125 56.890625 51.125 
Q 56.890625 40.328125 50.609375 34.8125 
Q 44.34375 29.296875 32.078125 29.296875 
L 19.671875 29.296875 
L 19.671875 0 
L 9.8125 0 
z
" id="DejaVuSans-50"/>
      <path d="M 64.40625 67.28125 
L 64.40625 56.890625 
Q 59.421875 61.53125 53.78125 63.8125 
Q 48.140625 66.109375 41.796875 66.109375 
Q 29.296875 66.109375 22.65625 58.46875 
Q 16.015625 50.828125 16.015625 36.375 
Q 16.015625 21.96875 22.65625 14.328125 
Q 29.296875 6.6875 41.796875 6.6875 
Q 48.140625 6.6875 53.78125 8.984375 
Q 59.421875 11.28125 64.40625 15.921875 
L 64.40625 5.609375 
Q 59.234375 2.09375 53.4375 0.328125 
Q 47.65625 -1.421875 41.21875 -1.421875 
Q 24.65625 -1.421875 15.125 8.703125 
Q 5.609375 18.84375 5.609375 36.375 
Q 5.609375 53.953125 15.125 64.078125 
Q 24.65625 74.21875 41.21875 74.21875 
Q 47.75 74.21875 53.53125 72.484375 
Q 59.328125 70.75 64.40625 67.28125 
z
" id="DejaVuSans-43"/>
      <path d="M 52 44.1875 
Q 55.375 50.25 60.0625 53.125 
Q 64.75 56 71.09375 56 
Q 79.640625 56 84.28125 50.015625 
Q 88.921875 44.046875 88.921875 33.015625 
L 88.921875 0 
L 79.890625 0 
L 79.890625 32.71875 
Q 79.890625 40.578125 77.09375 44.375 
Q 74.3125 48.1875 68.609375 48.1875 
Q 61.625 48.1875 57.5625 43.546875 
Q 53.515625 38.921875 53.515625 30.90625 
L 53.515625 0 
L 44.484375 0 
L 44.484375 32.71875 
Q 44.484375 40.625 41.703125 44.40625 
Q 38.921875 48.1875 33.109375 48.1875 
Q 26.21875 48.1875 22.15625 43.53125 
Q 18.109375 38.875 18.109375 30.90625 
L 18.109375 0 
L 9.078125 0 
L 9.078125 54.6875 
L 18.109375 54.6875 
L 18.109375 46.1875 
Q 21.1875 51.21875 25.484375 53.609375 
Q 29.78125 56 35.6875 56 
Q 41.65625 56 45.828125 52.96875 
Q 50 49.953125 52 44.1875 
z
" id="DejaVuSans-6d"/>
     </defs>
     <g transform="translate(117.443199 658.276562)scale(0.1 -0.1)">
      <use xlink:href="#DejaVuSans-50"/>
      <use x="60.287109" xlink:href="#DejaVuSans-72"/>
      <use x="101.400391" xlink:href="#DejaVuSans-69"/>
      <use x="129.183594" xlink:href="#DejaVuSans-6e"/>
      <use x="192.5625" xlink:href="#DejaVuSans-63"/>
      <use x="247.542969" xlink:href="#DejaVuSans-69"/>
      <use x="275.326172" xlink:href="#DejaVuSans-70"/>
      <use x="338.802734" xlink:href="#DejaVuSans-61"/>
      <use x="400.082031" xlink:href="#DejaVuSans-6c"/>
      <use x="427.865234" xlink:href="#DejaVuSans-20"/>
      <use x="459.652344" xlink:href="#DejaVuSans-43"/>
      <use x="529.476562" xlink:href="#DejaVuSans-6f"/>
      <use x="590.658203" xlink:href="#DejaVuSans-6d"/>
      <use x="688.070312" xlink:href="#DejaVuSans-70"/>
      <use x="751.546875" xlink:href="#DejaVuSans-6f"/>
      <use x="812.728516" xlink:href="#DejaVuSans-6e"/>
      <use x="876.107422" xlink:href="#DejaVuSans-65"/>
      <use x="937.630859" xlink:href="#DejaVuSans-6e"/>
      <use x="1001.009766" xlink:href="#DejaVuSans-74"/>
      <use x="1040.21875" xlink:href="#DejaVuSans-73"/>
     </g>
    </g>
   </g>
   <g id="matplotlib.axis_14">
    <g id="ytick_40">
     <g id="line2d_65">
      <g>
       <use style="stroke:#000000;stroke-width:0.8;" x="90" xlink:href="#m620cf92398" y="627.209173"/>
      </g>
     </g>
     <g id="text_23">
      <!-- 0.0050 -->
      <g transform="translate(48.009375 631.008391)scale(0.1 -0.1)">
       <use xlink:href="#DejaVuSans-30"/>
       <use x="63.623047" xlink:href="#DejaVuSans-2e"/>
       <use x="95.410156" xlink:href="#DejaVuSans-30"/>
       <use x="159.033203" xlink:href="#DejaVuSans-30"/>
       <use x="222.65625" xlink:href="#DejaVuSans-35"/>
       <use x="286.279297" xlink:href="#DejaVuSans-30"/>
      </g>
     </g>
    </g>
    <g id="ytick_41">
     <g id="line2d_66">
      <g>
       <use style="stroke:#000000;stroke-width:0.8;" x="90" xlink:href="#m620cf92398" y="603.473119"/>
      </g>
     </g>
     <g id="text_24">
      <!-- 0.0075 -->
      <g transform="translate(48.009375 607.272337)scale(0.1 -0.1)">
       <use xlink:href="#DejaVuSans-30"/>
       <use x="63.623047" xlink:href="#DejaVuSans-2e"/>
       <use x="95.410156" xlink:href="#DejaVuSans-30"/>
       <use x="159.033203" xlink:href="#DejaVuSans-30"/>
       <use x="222.65625" xlink:href="#DejaVuSans-37"/>
       <use x="286.279297" xlink:href="#DejaVuSans-35"/>
      </g>
     </g>
    </g>
    <g id="ytick_42">
     <g id="line2d_67">
      <g>
       <use style="stroke:#000000;stroke-width:0.8;" x="90" xlink:href="#m620cf92398" y="579.737065"/>
      </g>
     </g>
     <g id="text_25">
      <!-- 0.0100 -->
      <g transform="translate(48.009375 583.536284)scale(0.1 -0.1)">
       <use xlink:href="#DejaVuSans-30"/>
       <use x="63.623047" xlink:href="#DejaVuSans-2e"/>
       <use x="95.410156" xlink:href="#DejaVuSans-30"/>
       <use x="159.033203" xlink:href="#DejaVuSans-31"/>
       <use x="222.65625" xlink:href="#DejaVuSans-30"/>
       <use x="286.279297" xlink:href="#DejaVuSans-30"/>
      </g>
     </g>
    </g>
    <g id="ytick_43">
     <g id="line2d_68">
      <g>
       <use style="stroke:#000000;stroke-width:0.8;" x="90" xlink:href="#m620cf92398" y="556.001011"/>
      </g>
     </g>
     <g id="text_26">
      <!-- 0.0125 -->
      <g transform="translate(48.009375 559.80023)scale(0.1 -0.1)">
       <use xlink:href="#DejaVuSans-30"/>
       <use x="63.623047" xlink:href="#DejaVuSans-2e"/>
       <use x="95.410156" xlink:href="#DejaVuSans-30"/>
       <use x="159.033203" xlink:href="#DejaVuSans-31"/>
       <use x="222.65625" xlink:href="#DejaVuSans-32"/>
       <use x="286.279297" xlink:href="#DejaVuSans-35"/>
      </g>
     </g>
    </g>
    <g id="ytick_44">
     <g id="line2d_69">
      <g>
       <use style="stroke:#000000;stroke-width:0.8;" x="90" xlink:href="#m620cf92398" y="532.264957"/>
      </g>
     </g>
     <g id="text_27">
      <!-- 0.0150 -->
      <g transform="translate(48.009375 536.064176)scale(0.1 -0.1)">
       <use xlink:href="#DejaVuSans-30"/>
       <use x="63.623047" xlink:href="#DejaVuSans-2e"/>
       <use x="95.410156" xlink:href="#DejaVuSans-30"/>
       <use x="159.033203" xlink:href="#DejaVuSans-31"/>
       <use x="222.65625" xlink:href="#DejaVuSans-35"/>
       <use x="286.279297" xlink:href="#DejaVuSans-30"/>
      </g>
     </g>
    </g>
    <g id="ytick_45">
     <g id="line2d_70">
      <g>
       <use style="stroke:#000000;stroke-width:0.8;" x="90" xlink:href="#m620cf92398" y="508.528904"/>
      </g>
     </g>
     <g id="text_28">
      <!-- 0.0175 -->
      <g transform="translate(48.009375 512.328122)scale(0.1 -0.1)">
       <use xlink:href="#DejaVuSans-30"/>
       <use x="63.623047" xlink:href="#DejaVuSans-2e"/>
       <use x="95.410156" xlink:href="#DejaVuSans-30"/>
       <use x="159.033203" xlink:href="#DejaVuSans-31"/>
       <use x="222.65625" xlink:href="#DejaVuSans-37"/>
       <use x="286.279297" xlink:href="#DejaVuSans-35"/>
      </g>
     </g>
    </g>
    <g id="ytick_46">
     <g id="line2d_71">
      <g>
       <use style="stroke:#000000;stroke-width:0.8;" x="90" xlink:href="#m620cf92398" y="484.79285"/>
      </g>
     </g>
     <g id="text_29">
      <!-- 0.0200 -->
      <g transform="translate(48.009375 488.592069)scale(0.1 -0.1)">
       <use xlink:href="#DejaVuSans-30"/>
       <use x="63.623047" xlink:href="#DejaVuSans-2e"/>
       <use x="95.410156" xlink:href="#DejaVuSans-30"/>
       <use x="159.033203" xlink:href="#DejaVuSans-32"/>
       <use x="222.65625" xlink:href="#DejaVuSans-30"/>
       <use x="286.279297" xlink:href="#DejaVuSans-30"/>
      </g>
     </g>
    </g>
    <g id="text_30">
     <!-- Ground-Truth Loss -->
     <defs>
      <path d="M 59.515625 10.40625 
L 59.515625 29.984375 
L 43.40625 29.984375 
L 43.40625 38.09375 
L 69.28125 38.09375 
L 69.28125 6.78125 
Q 63.578125 2.734375 56.6875 0.65625 
Q 49.8125 -1.421875 42 -1.421875 
Q 24.90625 -1.421875 15.25 8.5625 
Q 5.609375 18.5625 5.609375 36.375 
Q 5.609375 54.25 15.25 64.234375 
Q 24.90625 74.21875 42 74.21875 
Q 49.125 74.21875 55.546875 72.453125 
Q 61.96875 70.703125 67.390625 67.28125 
L 67.390625 56.78125 
Q 61.921875 61.421875 55.765625 63.765625 
Q 49.609375 66.109375 42.828125 66.109375 
Q 29.4375 66.109375 22.71875 58.640625 
Q 16.015625 51.171875 16.015625 36.375 
Q 16.015625 21.625 22.71875 14.15625 
Q 29.4375 6.6875 42.828125 6.6875 
Q 48.046875 6.6875 52.140625 7.59375 
Q 56.25 8.5 59.515625 10.40625 
z
" id="DejaVuSans-47"/>
      <path d="M -0.296875 72.90625 
L 61.375 72.90625 
L 61.375 64.59375 
L 35.5 64.59375 
L 35.5 0 
L 25.59375 0 
L 25.59375 64.59375 
L -0.296875 64.59375 
z
" id="DejaVuSans-54"/>
      <path d="M 54.890625 33.015625 
L 54.890625 0 
L 45.90625 0 
L 45.90625 32.71875 
Q 45.90625 40.484375 42.875 44.328125 
Q 39.84375 48.1875 33.796875 48.1875 
Q 26.515625 48.1875 22.3125 43.546875 
Q 18.109375 38.921875 18.109375 30.90625 
L 18.109375 0 
L 9.078125 0 
L 9.078125 75.984375 
L 18.109375 75.984375 
L 18.109375 46.1875 
Q 21.34375 51.125 25.703125 53.5625 
Q 30.078125 56 35.796875 56 
Q 45.21875 56 50.046875 50.171875 
Q 54.890625 44.34375 54.890625 33.015625 
z
" id="DejaVuSans-68"/>
     </defs>
     <g transform="translate(41.929687 596.39398)rotate(-90)scale(0.1 -0.1)">
      <use xlink:href="#DejaVuSans-47"/>
      <use x="77.490234" xlink:href="#DejaVuSans-72"/>
      <use x="118.572266" xlink:href="#DejaVuSans-6f"/>
      <use x="179.753906" xlink:href="#DejaVuSans-75"/>
      <use x="243.132812" xlink:href="#DejaVuSans-6e"/>
      <use x="306.511719" xlink:href="#DejaVuSans-64"/>
      <use x="369.988281" xlink:href="#DejaVuSans-2d"/>
      <use x="405.931641" xlink:href="#DejaVuSans-54"/>
      <use x="466.796875" xlink:href="#DejaVuSans-72"/>
      <use x="507.910156" xlink:href="#DejaVuSans-75"/>
      <use x="571.289062" xlink:href="#DejaVuSans-74"/>
      <use x="610.498047" xlink:href="#DejaVuSans-68"/>
      <use x="673.876953" xlink:href="#DejaVuSans-20"/>
      <use x="705.664062" xlink:href="#DejaVuSans-4c"/>
      <use x="761.361328" xlink:href="#DejaVuSans-6f"/>
      <use x="822.542969" xlink:href="#DejaVuSans-73"/>
      <use x="874.642578" xlink:href="#DejaVuSans-73"/>
     </g>
    </g>
   </g>
   <g id="line2d_72">
    <path clip-path="url(#p54cb9bd205)" d="M 97.459893 510.791397 
L 105.748663 542.674474 
L 114.037433 569.804677 
L 122.326203 589.081334 
L 130.614973 603.137978 
L 138.903743 610.41278 
L 147.192513 615.150168 
L 155.481283 619.809232 
L 163.770053 622.73262 
L 172.058824 616.574677 
L 180.347594 610.308502 
L 188.636364 604.293002 
L 196.925134 598.30614 
L 205.213904 592.043054 
L 213.502674 586.085286 
L 221.791444 579.825107 
L 230.080214 573.644728 
L 238.368984 567.615362 
L 246.657754 561.724079 
" style="fill:none;stroke:#1f77b4;stroke-dasharray:5.55,2.4;stroke-dashoffset:0;stroke-width:1.5;"/>
   </g>
   <g id="patch_33">
    <path d="M 90 630 
L 90 470.117647 
" style="fill:none;stroke:#000000;stroke-linecap:square;stroke-linejoin:miter;stroke-width:0.8;"/>
   </g>
   <g id="patch_34">
    <path d="M 254.117647 630 
L 254.117647 470.117647 
" style="fill:none;stroke:#000000;stroke-linecap:square;stroke-linejoin:miter;stroke-width:0.8;"/>
   </g>
   <g id="patch_35">
    <path d="M 90 630 
L 254.117647 630 
" style="fill:none;stroke:#000000;stroke-linecap:square;stroke-linejoin:miter;stroke-width:0.8;"/>
   </g>
   <g id="patch_36">
    <path d="M 90 470.117647 
L 254.117647 470.117647 
" style="fill:none;stroke:#000000;stroke-linecap:square;stroke-linejoin:miter;stroke-width:0.8;"/>
   </g>
  </g>
  <g id="axes_8">
   <g id="patch_37">
    <path d="M 286.941176 630 
L 451.058824 630 
L 451.058824 470.117647 
L 286.941176 470.117647 
z
" style="fill:#ffffff;"/>
   </g>
   <g id="matplotlib.axis_15">
    <g id="xtick_20">
     <g id="line2d_73">
      <g>
       <use style="stroke:#000000;stroke-width:0.8;" x="331.700535" xlink:href="#mbfd961fbd6" y="630"/>
      </g>
     </g>
     <g id="text_31">
      <!-- 5 -->
      <g transform="translate(328.519285 644.598438)scale(0.1 -0.1)">
       <use xlink:href="#DejaVuSans-35"/>
      </g>
     </g>
    </g>
    <g id="xtick_21">
     <g id="line2d_74">
      <g>
       <use style="stroke:#000000;stroke-width:0.8;" x="393.86631" xlink:href="#mbfd961fbd6" y="630"/>
      </g>
     </g>
     <g id="text_32">
      <!-- 10 -->
      <g transform="translate(387.50381 644.598438)scale(0.1 -0.1)">
       <use xlink:href="#DejaVuSans-31"/>
       <use x="63.623047" xlink:href="#DejaVuSans-30"/>
      </g>
     </g>
    </g>
    <g id="text_33">
     <!-- Diffusion Time -->
     <defs>
      <path d="M 19.671875 64.796875 
L 19.671875 8.109375 
L 31.59375 8.109375 
Q 46.6875 8.109375 53.6875 14.9375 
Q 60.6875 21.78125 60.6875 36.53125 
Q 60.6875 51.171875 53.6875 57.984375 
Q 46.6875 64.796875 31.59375 64.796875 
z
M 9.8125 72.90625 
L 30.078125 72.90625 
Q 51.265625 72.90625 61.171875 64.09375 
Q 71.09375 55.28125 71.09375 36.53125 
Q 71.09375 17.671875 61.125 8.828125 
Q 51.171875 0 30.078125 0 
L 9.8125 0 
z
" id="DejaVuSans-44"/>
     </defs>
     <g transform="translate(332.873438 658.276562)scale(0.1 -0.1)">
      <use xlink:href="#DejaVuSans-44"/>
      <use x="77.001953" xlink:href="#DejaVuSans-69"/>
      <use x="104.785156" xlink:href="#DejaVuSans-66"/>
      <use x="139.990234" xlink:href="#DejaVuSans-66"/>
      <use x="175.195312" xlink:href="#DejaVuSans-75"/>
      <use x="238.574219" xlink:href="#DejaVuSans-73"/>
      <use x="290.673828" xlink:href="#DejaVuSans-69"/>
      <use x="318.457031" xlink:href="#DejaVuSans-6f"/>
      <use x="379.638672" xlink:href="#DejaVuSans-6e"/>
      <use x="443.017578" xlink:href="#DejaVuSans-20"/>
      <use x="474.804688" xlink:href="#DejaVuSans-54"/>
      <use x="535.841797" xlink:href="#DejaVuSans-69"/>
      <use x="563.625" xlink:href="#DejaVuSans-6d"/>
      <use x="661.037109" xlink:href="#DejaVuSans-65"/>
     </g>
    </g>
   </g>
   <g id="matplotlib.axis_16">
    <g id="ytick_47">
     <g id="line2d_75">
      <g>
       <use style="stroke:#000000;stroke-width:0.8;" x="286.941176" xlink:href="#m620cf92398" y="627.209173"/>
      </g>
     </g>
    </g>
    <g id="ytick_48">
     <g id="line2d_76">
      <g>
       <use style="stroke:#000000;stroke-width:0.8;" x="286.941176" xlink:href="#m620cf92398" y="603.473119"/>
      </g>
     </g>
    </g>
    <g id="ytick_49">
     <g id="line2d_77">
      <g>
       <use style="stroke:#000000;stroke-width:0.8;" x="286.941176" xlink:href="#m620cf92398" y="579.737065"/>
      </g>
     </g>
    </g>
    <g id="ytick_50">
     <g id="line2d_78">
      <g>
       <use style="stroke:#000000;stroke-width:0.8;" x="286.941176" xlink:href="#m620cf92398" y="556.001011"/>
      </g>
     </g>
    </g>
    <g id="ytick_51">
     <g id="line2d_79">
      <g>
       <use style="stroke:#000000;stroke-width:0.8;" x="286.941176" xlink:href="#m620cf92398" y="532.264957"/>
      </g>
     </g>
    </g>
    <g id="ytick_52">
     <g id="line2d_80">
      <g>
       <use style="stroke:#000000;stroke-width:0.8;" x="286.941176" xlink:href="#m620cf92398" y="508.528904"/>
      </g>
     </g>
    </g>
    <g id="ytick_53">
     <g id="line2d_81">
      <g>
       <use style="stroke:#000000;stroke-width:0.8;" x="286.941176" xlink:href="#m620cf92398" y="484.79285"/>
      </g>
     </g>
    </g>
   </g>
   <g id="line2d_82">
    <path clip-path="url(#p71051d70fd)" d="M 294.40107 568.541435 
L 306.834225 600.573034 
L 319.26738 604.628908 
L 331.700535 601.412889 
L 344.13369 596.239427 
L 356.566845 590.703601 
L 369 585.312939 
L 381.433155 580.219697 
L 393.86631 575.453879 
L 406.299465 571.003992 
L 418.73262 566.846319 
L 431.165775 562.955531 
L 443.59893 559.308259 
" style="fill:none;stroke:#1f77b4;stroke-dasharray:5.55,2.4;stroke-dashoffset:0;stroke-width:1.5;"/>
   </g>
   <g id="patch_38">
    <path d="M 286.941176 630 
L 286.941176 470.117647 
" style="fill:none;stroke:#000000;stroke-linecap:square;stroke-linejoin:miter;stroke-width:0.8;"/>
   </g>
   <g id="patch_39">
    <path d="M 451.058824 630 
L 451.058824 470.117647 
" style="fill:none;stroke:#000000;stroke-linecap:square;stroke-linejoin:miter;stroke-width:0.8;"/>
   </g>
   <g id="patch_40">
    <path d="M 286.941176 630 
L 451.058824 630 
" style="fill:none;stroke:#000000;stroke-linecap:square;stroke-linejoin:miter;stroke-width:0.8;"/>
   </g>
   <g id="patch_41">
    <path d="M 286.941176 470.117647 
L 451.058824 470.117647 
" style="fill:none;stroke:#000000;stroke-linecap:square;stroke-linejoin:miter;stroke-width:0.8;"/>
   </g>
  </g>
  <g id="axes_9">
   <g id="patch_42">
    <path d="M 483.882353 630 
L 648 630 
L 648 470.117647 
L 483.882353 470.117647 
z
" style="fill:#ffffff;"/>
   </g>
   <g id="matplotlib.axis_17">
    <g id="xtick_22">
     <g id="line2d_83">
      <g>
       <use style="stroke:#000000;stroke-width:0.8;" x="484.855382" xlink:href="#mbfd961fbd6" y="630"/>
      </g>
     </g>
     <g id="text_34">
      <!-- 0 -->
      <g transform="translate(481.674132 644.598438)scale(0.1 -0.1)">
       <use xlink:href="#DejaVuSans-30"/>
      </g>
     </g>
    </g>
    <g id="xtick_23">
     <g id="line2d_84">
      <g>
       <use style="stroke:#000000;stroke-width:0.8;" x="549.724018" xlink:href="#mbfd961fbd6" y="630"/>
      </g>
     </g>
     <g id="text_35">
      <!-- 20 -->
      <g transform="translate(543.361518 644.598438)scale(0.1 -0.1)">
       <use xlink:href="#DejaVuSans-32"/>
       <use x="63.623047" xlink:href="#DejaVuSans-30"/>
      </g>
     </g>
    </g>
    <g id="xtick_24">
     <g id="line2d_85">
      <g>
       <use style="stroke:#000000;stroke-width:0.8;" x="614.592653" xlink:href="#mbfd961fbd6" y="630"/>
      </g>
     </g>
     <g id="text_36">
      <!-- 40 -->
      <defs>
       <path d="M 37.796875 64.3125 
L 12.890625 25.390625 
L 37.796875 25.390625 
z
M 35.203125 72.90625 
L 47.609375 72.90625 
L 47.609375 25.390625 
L 58.015625 25.390625 
L 58.015625 17.1875 
L 47.609375 17.1875 
L 47.609375 0 
L 37.796875 0 
L 37.796875 17.1875 
L 4.890625 17.1875 
L 4.890625 26.703125 
z
" id="DejaVuSans-34"/>
      </defs>
      <g transform="translate(608.230153 644.598438)scale(0.1 -0.1)">
       <use xlink:href="#DejaVuSans-34"/>
       <use x="63.623047" xlink:href="#DejaVuSans-30"/>
      </g>
     </g>
    </g>
    <g id="text_37">
     <!-- Bottleneck Width -->
     <defs>
      <path d="M 19.671875 34.8125 
L 19.671875 8.109375 
L 35.5 8.109375 
Q 43.453125 8.109375 47.28125 11.40625 
Q 51.125 14.703125 51.125 21.484375 
Q 51.125 28.328125 47.28125 31.5625 
Q 43.453125 34.8125 35.5 34.8125 
z
M 19.671875 64.796875 
L 19.671875 42.828125 
L 34.28125 42.828125 
Q 41.5 42.828125 45.03125 45.53125 
Q 48.578125 48.25 48.578125 53.8125 
Q 48.578125 59.328125 45.03125 62.0625 
Q 41.5 64.796875 34.28125 64.796875 
z
M 9.8125 72.90625 
L 35.015625 72.90625 
Q 46.296875 72.90625 52.390625 68.21875 
Q 58.5 63.53125 58.5 54.890625 
Q 58.5 48.1875 55.375 44.234375 
Q 52.25 40.28125 46.1875 39.3125 
Q 53.46875 37.75 57.5 32.78125 
Q 61.53125 27.828125 61.53125 20.40625 
Q 61.53125 10.640625 54.890625 5.3125 
Q 48.25 0 35.984375 0 
L 9.8125 0 
z
" id="DejaVuSans-42"/>
      <path d="M 9.078125 75.984375 
L 18.109375 75.984375 
L 18.109375 31.109375 
L 44.921875 54.6875 
L 56.390625 54.6875 
L 27.390625 29.109375 
L 57.625 0 
L 45.90625 0 
L 18.109375 26.703125 
L 18.109375 0 
L 9.078125 0 
z
" id="DejaVuSans-6b"/>
      <path d="M 3.328125 72.90625 
L 13.28125 72.90625 
L 28.609375 11.28125 
L 43.890625 72.90625 
L 54.984375 72.90625 
L 70.3125 11.28125 
L 85.59375 72.90625 
L 95.609375 72.90625 
L 77.296875 0 
L 64.890625 0 
L 49.515625 63.28125 
L 33.984375 0 
L 21.578125 0 
z
" id="DejaVuSans-57"/>
     </defs>
     <g transform="translate(522.952114 658.276562)scale(0.1 -0.1)">
      <use xlink:href="#DejaVuSans-42"/>
      <use x="68.603516" xlink:href="#DejaVuSans-6f"/>
      <use x="129.785156" xlink:href="#DejaVuSans-74"/>
      <use x="168.994141" xlink:href="#DejaVuSans-74"/>
      <use x="208.203125" xlink:href="#DejaVuSans-6c"/>
      <use x="235.986328" xlink:href="#DejaVuSans-65"/>
      <use x="297.509766" xlink:href="#DejaVuSans-6e"/>
      <use x="360.888672" xlink:href="#DejaVuSans-65"/>
      <use x="422.412109" xlink:href="#DejaVuSans-63"/>
      <use x="477.392578" xlink:href="#DejaVuSans-6b"/>
      <use x="535.302734" xlink:href="#DejaVuSans-20"/>
      <use x="567.089844" xlink:href="#DejaVuSans-57"/>
      <use x="665.935547" xlink:href="#DejaVuSans-69"/>
      <use x="693.71875" xlink:href="#DejaVuSans-64"/>
      <use x="757.195312" xlink:href="#DejaVuSans-74"/>
      <use x="796.404297" xlink:href="#DejaVuSans-68"/>
     </g>
    </g>
   </g>
   <g id="matplotlib.axis_18">
    <g id="ytick_54">
     <g id="line2d_86">
      <g>
       <use style="stroke:#000000;stroke-width:0.8;" x="483.882353" xlink:href="#m620cf92398" y="627.209173"/>
      </g>
     </g>
    </g>
    <g id="ytick_55">
     <g id="line2d_87">
      <g>
       <use style="stroke:#000000;stroke-width:0.8;" x="483.882353" xlink:href="#m620cf92398" y="603.473119"/>
      </g>
     </g>
    </g>
    <g id="ytick_56">
     <g id="line2d_88">
      <g>
       <use style="stroke:#000000;stroke-width:0.8;" x="483.882353" xlink:href="#m620cf92398" y="579.737065"/>
      </g>
     </g>
    </g>
    <g id="ytick_57">
     <g id="line2d_89">
      <g>
       <use style="stroke:#000000;stroke-width:0.8;" x="483.882353" xlink:href="#m620cf92398" y="556.001011"/>
      </g>
     </g>
    </g>
    <g id="ytick_58">
     <g id="line2d_90">
      <g>
       <use style="stroke:#000000;stroke-width:0.8;" x="483.882353" xlink:href="#m620cf92398" y="532.264957"/>
      </g>
     </g>
    </g>
    <g id="ytick_59">
     <g id="line2d_91">
      <g>
       <use style="stroke:#000000;stroke-width:0.8;" x="483.882353" xlink:href="#m620cf92398" y="508.528904"/>
      </g>
     </g>
    </g>
    <g id="ytick_60">
     <g id="line2d_92">
      <g>
       <use style="stroke:#000000;stroke-width:0.8;" x="483.882353" xlink:href="#m620cf92398" y="484.79285"/>
      </g>
     </g>
    </g>
   </g>
   <g id="line2d_93">
    <path clip-path="url(#pfc87c6329c)" d="M 491.342246 502.537393 
L 494.585678 510.879311 
L 497.82911 526.969924 
L 504.315973 559.754007 
L 510.802837 591.401695 
L 523.776564 592.696231 
L 536.750291 589.273695 
L 562.697745 578.478992 
L 588.645199 557.114799 
L 640.540107 477.385027 
" style="fill:none;stroke:#1f77b4;stroke-dasharray:5.55,2.4;stroke-dashoffset:0;stroke-width:1.5;"/>
   </g>
   <g id="patch_43">
    <path d="M 483.882353 630 
L 483.882353 470.117647 
" style="fill:none;stroke:#000000;stroke-linecap:square;stroke-linejoin:miter;stroke-width:0.8;"/>
   </g>
   <g id="patch_44">
    <path d="M 648 630 
L 648 470.117647 
" style="fill:none;stroke:#000000;stroke-linecap:square;stroke-linejoin:miter;stroke-width:0.8;"/>
   </g>
   <g id="patch_45">
    <path d="M 483.882353 630 
L 648 630 
" style="fill:none;stroke:#000000;stroke-linecap:square;stroke-linejoin:miter;stroke-width:0.8;"/>
   </g>
   <g id="patch_46">
    <path d="M 483.882353 470.117647 
L 648 470.117647 
" style="fill:none;stroke:#000000;stroke-linecap:square;stroke-linejoin:miter;stroke-width:0.8;"/>
   </g>
  </g>
 </g>
 <defs>
  <clipPath id="p36ec080a75">
   <rect height="159.882353" width="164.117647" x="90" y="86.4"/>
  </clipPath>
  <clipPath id="p81eb22d7af">
   <rect height="159.882353" width="164.117647" x="286.941176" y="86.4"/>
  </clipPath>
  <clipPath id="p29f1ee6dcc">
   <rect height="159.882353" width="164.117647" x="483.882353" y="86.4"/>
  </clipPath>
  <clipPath id="p4a4bf80c8a">
   <rect height="159.882353" width="164.117647" x="90" y="278.258824"/>
  </clipPath>
  <clipPath id="pc8d7b05ca5">
   <rect height="159.882353" width="164.117647" x="286.941176" y="278.258824"/>
  </clipPath>
  <clipPath id="p0df4ee5619">
   <rect height="159.882353" width="164.117647" x="483.882353" y="278.258824"/>
  </clipPath>
  <clipPath id="p54cb9bd205">
   <rect height="159.882353" width="164.117647" x="90" y="470.117647"/>
  </clipPath>
  <clipPath id="p71051d70fd">
   <rect height="159.882353" width="164.117647" x="286.941176" y="470.117647"/>
  </clipPath>
  <clipPath id="pfc87c6329c">
   <rect height="159.882353" width="164.117647" x="483.882353" y="470.117647"/>
  </clipPath>
 </defs>
</svg>
